<svg width="550" height="387" viewBox="0 0 550 387" fill="none" xmlns="http://www.w3.org/2000/svg">
<path d="M422.39 338.04C421.82 337.14 420.98 336.45 419.99 336.06L162.63 235.56C134.18 190.15 95.4395 171.03 67.7995 163.01C37.5395 154.22 14.2295 156.42 13.2495 156.52C12.8495 156.56 12.4695 156.66 12.0995 156.79C11.4395 156.55 10.7195 156.45 9.98953 156.52C7.97953 156.7 6.27953 158.06 5.65953 159.98C-9.75047 208.19 12.6695 247.77 68.7795 271.44C94.6395 282.35 118.22 281.65 145.23 269.17C149.65 267.13 153.45 265.29 155.76 264.15C311.41 351.22 401.709 385.67 402.609 386C403.179 386.21 403.78 386.32 404.38 386.32C404.82 386.32 405.26 386.26 405.7 386.14C416.89 383.09 424.17 377.41 427.33 369.25C432.9 354.88 422.83 338.73 422.39 338.04ZM65.4095 172.72C100.74 183.07 129.29 204.04 150.4 235.08C112.45 236.2 78.5695 224.44 49.5995 200.04C34.5095 187.33 24.4795 174.09 19.2295 166.24C27.3995 166.1 44.8295 166.69 65.4095 172.72ZM418 365.67C416.17 370.35 411.67 373.84 404.62 376.04C392.06 371.12 303.58 335.5 158.36 254.12C157.6 253.69 156.76 253.48 155.92 253.48C155.15 253.48 154.38 253.66 153.67 254.01C153.61 254.04 148.07 256.83 141.05 260.06C116.49 271.41 96.0395 272.05 72.6795 262.2C39.3095 248.12 3.13952 221.6 12.3695 173.97C18.2395 182.44 28.2495 195.07 42.8395 207.41C65.5495 226.63 104.01 248.63 158.53 244.67L414.719 344.72C416.579 348.24 421.03 357.89 418 365.67Z" fill="black"/>
<path d="M530.5 14.88C520.25 12.05 505.68 9.52002 487.18 7.36002C449.48 2.96002 399.39 0.540039 346.14 0.540039C292.89 0.540039 242.81 2.96002 205.1 7.36002C186.6 9.52002 172.03 12.05 161.78 14.88C155.04 16.74 148.2 19.14 144.77 23.03C143.3 24.48 142.5 26.19 142.5 28.24C142.5 28.36 142.5 28.49 142.5 28.61C142.5 28.65 142.5 28.69 142.5 28.73C142.5 28.8 142.51 28.88 142.51 28.95C142.89 140.91 234.09 231.88 346.14 231.88C458.19 231.88 549.39 140.91 549.77 28.95C549.77 28.88 549.78 28.8 549.78 28.73C549.78 21.21 540.03 17.51 530.5 14.88ZM211.86 16.67C248.48 12.72 296.17 10.54 346.14 10.54C396.11 10.54 443.8 12.72 480.42 16.67C523.21 21.29 535.49 26.59 538.84 28.73C536.26 30.37 528.38 33.89 505.4 37.53C478.94 34.03 415.4 28.73 341.04 28.73C266.33 28.73 208.18 33.61 184.85 37.2C163.43 33.68 155.95 30.32 153.45 28.73C156.79 26.59 169.07 21.28 211.86 16.67ZM539.45 39.6C533.55 141.11 449.1 221.88 346.14 221.88C243.18 221.88 158.73 141.11 152.83 39.6C155.61 40.76 158.71 41.72 161.78 42.57C172.03 45.4 186.6 47.93 205.1 50.09C242.8 54.49 292.89 56.92 346.14 56.92C399.39 56.92 449.47 54.5 487.18 50.09C505.68 47.93 520.25 45.4 530.5 42.57C533.57 41.72 536.67 40.76 539.45 39.6Z" fill="black"/>
</svg>
