<svg width="462" height="508" viewBox="0 0 462 508" fill="none" xmlns="http://www.w3.org/2000/svg">
<path d="M338.02 458.04C344.91 465.04 354.5 474.16 361.4 481.15C362.96 482.73 364.64 484.19 366.18 485.8C368.91 488.66 370.32 491.99 367.15 495.19C363.88 498.48 360.21 497.57 357.1 494.64C352.9 490.67 348.86 486.54 344.77 482.45C337.7 475.38 330.81 468.11 323.47 461.33C321.44 459.45 318.1 458.03 315.35 458.02C259.11 457.83 202.87 457.83 146.64 458.02C143.91 458.03 140.55 459.51 138.55 461.41C128.09 471.37 117.98 481.7 107.74 491.9C106.64 493 105.63 494.85 104.39 495.02C103.06 495.2 101.71 495.25 100.35 495.24C97.1297 495.22 94.5997 492.55 94.8097 489.34C94.8897 488.1 95.1297 487.01 95.7797 486.27C102.53 478.62 110.04 471.64 117.23 464.37C118.69 462.89 119.97 461.23 122.43 458.39C118.18 458.15 73.5497 457.93 53.7697 457.83C27.6097 457.7 10.9697 440.89 10.9697 414.68C10.9497 325.31 10.9497 235.94 10.9597 146.56C10.9597 120.22 27.4297 103.57 53.7197 103.48C87.0597 103.37 120.41 103.34 153.75 103.5C158.87 103.53 161.62 102.22 163.53 97.01C165.88 90.62 169.15 84.33 173.21 78.89C176.8 74.08 175.68 71.54 171.93 67.88C156.21 52.49 140.79 36.79 125.17 21.3C122.44 18.6 119.99 16.54 123.76 12.64C127.4 8.87998 130.03 9.92998 133.18 13.11C149.16 29.19 165.3 45.1 181.2 61.24C184.12 64.21 186.09 65.27 190.02 62.49C214.13 45.45 247.33 45.17 271.32 61.91C275.57 64.87 277.75 64.46 281.22 60.91C296.58 45.17 312.19 29.66 327.86 14.23C332.72 9.44998 335.19 8.92998 338.52 13.58C340.18 15.9 339.89 19.1 337.85 21.1C324.44 34.27 310.83 47.61 297.27 61.01C293.49 64.75 287.76 68.2 286.82 72.62C286.03 76.32 290.98 81.2 293.26 85.62C295.19 89.37 297.51 93.05 298.61 97.05C300.11 102.47 303.36 103.56 308.41 103.54C341.53 103.39 374.65 103.44 407.77 103.47C435.31 103.5 452.12 121.19 450.93 148.66C450.68 154.43 450.78 160.22 450.78 166C450.76 248.7 450.31 331.41 451.02 414.11C451.24 439.53 433.36 458.74 406.82 457.97C387.52 457.42 340.31 458.15 338.02 458.04ZM86.1797 150.99C68.9897 151.01 57.3497 162.2 56.6697 179.51C56.3697 187.28 56.4397 320.24 56.6097 378.94C56.6597 397.92 68.3197 409.26 87.0597 409.27C162.42 409.3 237.78 409.32 313.14 409.27C330.88 409.26 342.91 397.94 342.96 380.36C343.17 313.66 343.18 246.96 342.98 180.26C342.92 162.17 331.01 151.02 312.92 151.01C275.36 150.99 124.19 150.96 86.1797 150.99ZM399.72 214.51C409.56 214.51 417.74 206.2 417.77 196.18C417.79 186.36 409.24 177.87 399.51 178.06C389.96 178.24 381.81 186.48 381.73 196.05C381.64 205.88 390.05 214.51 399.72 214.51ZM399.48 257.54C409.93 257.61 417.64 250.06 417.68 239.73C417.72 229.76 409.55 221.77 399.4 221.87C389.65 221.96 381.93 229.89 381.98 239.77C382.03 249.84 389.54 257.48 399.48 257.54ZM399.26 333.27C409.03 333.27 418.8 333.29 428.56 333.26C433.44 333.24 437.83 331.97 437.81 326.14C437.79 320.31 433.5 319.17 428.53 319.18C409.44 319.24 390.34 319.24 371.25 319.17C366.25 319.15 361.98 320.33 362.02 326.16C362.06 331.87 366.32 333.3 371.28 333.29C380.61 333.27 389.94 333.28 399.26 333.27ZM399.44 358.82C399.44 358.81 399.44 358.8 399.44 358.79C409.44 358.79 419.44 358.78 429.45 358.79C433.96 358.8 437.6 357.34 437.83 352.28C438.09 346.7 434.09 345.06 429.46 345.03C409.9 344.91 390.34 344.9 370.78 345.01C366.28 345.04 362.03 346.34 362.1 351.98C362.16 357.47 365.97 358.87 370.77 358.83C380.32 358.77 389.88 358.82 399.44 358.82ZM399.96 384.33C399.96 384.31 399.96 384.3 399.96 384.28C409.74 384.28 419.52 384.25 429.3 384.3C433.77 384.32 437.47 383.17 437.79 378C438.14 372.38 434.21 370.63 429.58 370.6C409.8 370.46 390.02 370.46 370.24 370.59C365.55 370.62 361.75 372.54 362.08 378.08C362.39 383.28 366.19 384.35 370.61 384.34C380.4 384.32 390.18 384.33 399.96 384.33Z" fill="black"/>
</svg>
