<svg width="337" height="705" viewBox="0 0 337 705" fill="none" xmlns="http://www.w3.org/2000/svg">
<path d="M264.342 320.7V300.62C300.252 291.18 323.052 258.75 315.932 158.2C309.762 71.05 251.092 0 171.102 0C91.1116 0 35.1015 71.28 26.2715 158.2C15.7815 261.41 38.1516 293.72 74.1316 302.42V320.15C33.9816 329.68 7.85156 345.15 7.85156 362.63C7.85156 391.6 79.5816 415.08 168.062 415.08C256.542 415.08 328.272 391.6 328.272 362.63C328.272 345.48 303.162 330.27 264.342 320.7ZM106.762 305.22C126.882 304.86 148.882 302.09 170.682 302.09C190.922 302.09 211.012 304.04 229.522 304.13V314.18C210.602 311.6 189.842 310.17 168.062 310.17C146.342 310.17 125.652 311.59 106.762 314.15V305.22ZM270.732 372.43C267.722 373.38 264.452 374.34 260.892 375.27C234.962 382.09 201.992 385.84 168.072 385.84C134.152 385.84 101.182 382.08 75.2516 375.27C71.6916 374.33 68.4216 373.38 65.4116 372.43C55.8216 369.39 55.8216 355.84 65.4116 352.8C68.4216 351.85 71.6916 350.9 75.2516 349.96C101.182 343.14 134.152 339.39 168.072 339.39C201.992 339.39 234.962 343.15 260.892 349.96C264.452 350.9 267.722 351.85 270.732 352.8C280.322 355.84 280.322 369.39 270.732 372.43Z" fill="black"/>
<path d="M3.26534 415.08C-11.0347 445.54 26.2653 471.02 26.2653 471.02C54.8553 534.42 94.6453 548.72 94.6453 548.72L78.4853 661.23C38.0853 688.58 94.6453 697.9 94.6453 697.9C208.395 717.79 273.045 686.71 273.045 686.71C284.235 674.9 255.015 662.47 255.015 662.47L243.825 548.1C281.125 538.15 309.715 471.02 309.715 471.02C317.795 461.07 328.985 453.62 328.985 453.62C338.305 446.78 335.825 415.08 335.825 415.08C135.665 507.7 3.26534 415.08 3.26534 415.08Z" fill="black"/>
<path d="M168.064 397.122C216.24 397.122 255.294 389.92 255.294 381.035C255.294 372.15 216.24 364.948 168.064 364.948C119.888 364.948 80.834 372.15 80.834 381.035C80.834 389.92 119.888 397.122 168.064 397.122Z" fill="black"/>
</svg>
